
<svg xmlns="http://www.w3.org/2000/svg" version="1.1" xmlns:xlink="http://www.w3.org/1999/xlink" preserveAspectRatio="none" x="0px" y="0px" width="1055px" height="218px" viewBox="0 0 1055 218">
<defs>
<g id="Layer3_0_FILL">
<path fill="#FFFFFF" stroke="none" d="
M 267.7 72.5
Q 268.258984375 71.9744140625 268.7 71.35 270.2 69.3001953125 270.2 66.35 270.2 62.6 267.7 60.3 265.15 58 259.95 58
L 208.65 58
Q 204.05 58 201.1 59.35 198.1 60.7 196.7 63.7 195.35 66.6 195.35 71.3
L 195.35 153.9
Q 195.35 160.6 198.4 163.9 201.4 167.2 206.25 167.2 211 167.2 214.1 163.95 217.1 160.65 217.1 153.9
L 217.1 118.55 252.9 118.55
Q 257.8 118.55 260.3 116.35 262.8 114.15 262.8 110.4 262.8 106.7 260.35 104.5 257.9 102.2 252.9 102.2
L 217.1 102.2 217.1 74.75 259.95 74.75
Q 265.15 74.75 267.7 72.5
M 821.6 97.8
Q 819.4 94.5 815.3 91.8 811.15 89.1 805 87.5 798.75 85.9 791 85.9 781.1 85.9 774.15 89.1 767.1 92.25 763.5 97.6 759.95 102.95 759.95 108.95 759.95 115.7 763.8 120.3 767.7 124.9 774.2 127.8 776.594140625 128.820703125 779.5 129.8 779.8201171875 129.9177734375 791 133.1 795.257421875 134.1236328125 798.4 135.2 802.0111328125 136.4400390625 804.15 137.75 808.1 140.15 808.1 145.45 808.1 148.85 804.3 151.6 800.45 154.2 794.45 154.2 787.05 154.2 782.8 151.6 781.0310546875 150.522265625 779.45 149 779.2994140625 148.8275390625 779.1 148.65 777.06953125 146.5283203125 775.4 143.6 773.85 140.8 772.15 139.3 770.5 137.75 767.35 137.75 763.75 137.75 761.4 140.1 759.05 142.45 759.05 145.7 759.05 150.7 762.7 155.7 766.4 160.6 774.05 163.9 781.75 167.2 792.5 167.2 803.8 167.2 811.7 164.2 819.55 161.1 823.6 155.25 827.6 149.3 827.6 141.05 827.6 135.55 824.6 131.3 821.55 126.95 815.65 123.8 809.75 120.65 800.45 118.4 792.6 116.5 788.15 115.2 783.65 113.85 781.05 111.9 778.4 109.85 778.4 106.7 778.4 103.25 782 100.95 785.55 98.65 791 98.65 796.25 98.65 799.35 100.4 802.4 102.15 804.7 105.05 807.45 108.6 809.65 110.35 811.8 112.1 814.85 112.1 819.1 112.1 821.45 109.9 823.75 107.7 823.75 104.25 823.75 101.1 821.6 97.8
M 343.35 97.15
Q 338.1 91.75 330.7 88.8 323.3 85.9 314.2 85.9 305.3 85.9 297.9 88.8 290.5 91.65 285.3 97 280.1 102.35 277.3 109.9 274.5 117.45 274.5 126.55 274.5 135.55 277.3 143 280 150.4 285.35 155.9 290.65 161.3 297.9 164.25 305.15 167.2 314.2 167.2 323.35 167.2 330.7 164.3 338 161.4 343.3 156 348.55 150.55 351.35 143 354.15 135.45 354.15 126.55 354.15 117.5 351.4 110.05 348.65 102.6 343.35 97.15
M 328.7 107.5
Q 334.05 114.3 334.05 126.55 334.05 138.6 328.7 145.5 323.3 152.3 314.2 152.3 308.2 152.3 303.8 149.25 299.35 146.1 297 140.25 294.6 134.35 294.6 126.55 294.6 118.6 297 112.7 299.4 106.75 303.9 103.75 308.35 100.7 314.2 100.7 323.3 100.7 328.7 107.5
M 334.05 126.55
Q 334.05 114.3 328.7 107.5 323.3 100.7 314.2 100.7 308.35 100.7 303.9 103.75 299.4 106.75 297 112.7 294.6 118.6 294.6 126.55 294.6 134.35 297 140.25 299.35 146.1 303.8 149.25 308.2 152.3 314.2 152.3 323.3 152.3 328.7 145.5 334.05 138.6 334.05 126.55
M 739.85 98.7
Q 736.7 91.95 729.15 88.9 721.6 85.75 708.45 85.75 696.65 85.75 688.75 88.95 680.8 92.2 677.1 97.15 673.35 102.15 673.35 107.4 673.35 109.2830078125 674.1 110.8 674.7345703125 112.018359375 675.85 113 678.25 115.1 681.6 115.1 685.35 115.1 686.55 113.8 687.65 112.4 690.4 108.15 693.1 103.9 697 101.8 700.8 99.65 708.45 99.65 717.3 99.65 720.15 103.4 722.95 107.05 723.3 114.95 717 116.8 711.65 118.1 706.25 119.35 698.7 120.9 691.15 122.45 689.25 122.85 680.15 124.85 674.95 130.65 669.75 136.4 669.75 144.6 669.75 150.7 672.9 155.9 676.05 161.1 681.9 164.2 687.7 167.2 695.4 167.2 703.8 167.2 710.65 164.4 717.35 161.55 724.6 155.9 728 161.4 731 164.3 734 167.2 737.05 167.2 740.75 167.2 743.65 164.7 746.5 162.15 746.5 159.05 746.5 157.3 744.7 151.2 742.8 145.05 742.8 139.4 742.85 133.4 742.9 128.5 742.9 123.6 742.9 116.55 742.9 105.45 739.85 98.7
M 692.75 136.35
Q 695.7 133.85 698.9 133.05 702.15 132.15 710.55 130.4 718.9 128.6 723.3 126.95
L 723.3 129.85
Q 723.3 140.25 720.6 144.75 718.25 148.85 713.25 151.5 708.2 154.05 702.3 154.05 696.7 154.05 693.25 150.9 689.8 147.7 689.8 143.15 689.8 138.75 692.75 136.35
M 698.9 133.05
Q 695.7 133.85 692.75 136.35 689.8 138.75 689.8 143.15 689.8 147.7 693.25 150.9 696.7 154.05 702.3 154.05 708.2 154.05 713.25 151.5 718.25 148.85 720.6 144.75 723.3 140.25 723.3 129.85
L 723.3 126.95
Q 718.9 128.6 710.55 130.4 702.15 132.15 698.9 133.05
M 433.9 97.15
Q 428.65 91.75 421.25 88.8 413.85 85.9 404.75 85.9 395.85 85.9 388.45 88.8 381.05 91.65 375.85 97 370.65 102.35 367.85 109.9 365.05 117.45 365.05 126.55 365.05 135.55 367.85 143 370.55 150.4 375.9 155.9 381.2 161.3 388.45 164.25 395.7 167.2 404.75 167.2 413.9 167.2 421.25 164.3 428.55 161.4 433.85 156 434.98203125 154.8248046875 436 153.55 439.7037109375 148.921875 441.9 143 444.7 135.45 444.7 126.55 444.7 117.5 441.95 110.05 439.7736328125 104.154296875 436 99.5 435.0056640625 98.2869140625 433.9 97.15
M 394.45 103.75
Q 398.9 100.7 404.75 100.7 413.85 100.7 419.25 107.5 424.6 114.3 424.6 126.55 424.6 138.6 419.25 145.5 413.85 152.3 404.75 152.3 398.75 152.3 394.35 149.25 389.9 146.1 387.55 140.25 385.15 134.35 385.15 126.55 385.15 118.6 387.55 112.7 389.95 106.75 394.45 103.75
M 404.75 100.7
Q 398.9 100.7 394.45 103.75 389.95 106.75 387.55 112.7 385.15 118.6 385.15 126.55 385.15 134.35 387.55 140.25 389.9 146.1 394.35 149.25 398.75 152.3 404.75 152.3 413.85 152.3 419.25 145.5 424.6 138.6 424.6 126.55 424.6 114.3 419.25 107.5 413.85 100.7 404.75 100.7
M 503.6 89.05
Q 497.65 86.05 489 86.05 478.6 86.05 471 91.1 467.7 93.3 464.9 96.5 455.75 107 455.75 125.75 455.75 134.6 458.1 142.2 460.4 149.8 464.85 155.45 467.6 158.95 471 161.45 473.1 163 475.45 164.2 481.55 167.2 488.7 167.2 494.15 167.2 498.75 165.7 503.3 164.2 507.25 161.3 511.15 158.4 515.15 153.8
L 515.15 155.75
Q 515.15 161.25 517.85 164.25 520.5 167.2 524.6 167.2 528.8 167.2 531.4 164.3 534.05 161.45 534.05 155.75
L 534.05 67.55
Q 534.05 61.95 531.65 59.1 529.15 56.15 524.6 56.15 520.05 56.15 517.65 59.3 515.15 62.45 515.15 68.6
L 515.15 98.1
Q 509.5 91.95 503.6 89.05
M 514.05 126.4
Q 514.05 134.9 511.5 140.6 508.85 146.25 504.55 149 500.15 151.75 494.85 151.75 489.65 151.75 485.3 148.85 480.9 145.95 478.4 140.25 475.85 134.5 475.85 126.4 475.85 118.7 478.25 112.9 480.6 107.05 484.9 103.95 489.25 100.8 494.75 100.8 500 100.8 504.45 103.9 508.85 106.9 511.5 112.7 514.05 118.4 514.05 126.4
M 511.5 140.6
Q 514.05 134.9 514.05 126.4 514.05 118.4 511.5 112.7 508.85 106.9 504.45 103.9 500 100.8 494.75 100.8 489.25 100.8 484.9 103.95 480.6 107.05 478.25 112.9 475.85 118.7 475.85 126.4 475.85 134.5 478.4 140.25 480.9 145.95 485.3 148.85 489.65 151.75 494.85 151.75 500.15 151.75 504.55 149 508.85 146.25 511.5 140.6
M 659.65 88.35
Q 657.05 85.9 653.45 85.9 649.85 85.9 647.95 87.55 646.05 89.2 645.25 91.4 644.45 93.5 643.1 98.35
L 629.95 143 618.05 101.5
Q 616.25 95.25 615.2 92.75 614.2 90.2 611.7 88.1 609.15 85.9 604.65 85.9 600.25 85.9 597.8 88.1 595.2 90.2 594.35 92.6 593.4 94.95 591.5 101.5
L 579.6 143 566.6 98.35
Q 564.6 91.5 562.85 88.75 561.1 85.9 556.1 85.9 552.35 85.9 549.8 88.45 547.25 91 547.25 94.25 547.25 96.8 549.65 103.55
L 565.85 151.45
Q 566.5 153.35 567.7 156.65 568.85 159.85 570.4 162.25 571.95 164.6 574.25 165.95 576.55 167.2 579.85 167.2 586.3 167.2 588.85 163.1 591.4 158.9 593.6 150.75
L 604.65 111.8 616.1 150.75
Q 617.55 156.05 618.8 159.35 620.05 162.65 622.7 164.9 625.25 167.2 629.8 167.2 634.2 167.2 636.75 165.05 639.25 162.95 640.4 160.2 641.6 157.5 643.7 151.45
L 660.05 103.55
Q 662.3 97.3 662.3 94.25 662.3 90.85 659.65 88.35
M 847.8 87.65
L 845.65 87.65
Q 841.1 87.65 838.75 89.7 836.3 91.65 836.3 94.8 836.3 97.95 838.6 100 840.85 102.05 845.2 102.05
L 847.8 102.05 847.8 140.45
Q 847.8 149.75 849.35 155.3 850.85 160.9 855.65 164.05 860.5 167.2 869.85 167.2 879.75 167.2 885.05 164.6 890.3 162.05 890.3 157.2 890.3 154.35 888.4 152.45 886.4 150.5 884 150.5 882.3 150.5 879.3 151.15 876.3 151.75 874.55 151.75 871.35 151.75 869.95 150.2 868.5 148.6 868.2 146.1 867.8 143.5 867.8 138.85
L 867.8 102.05 871.55 102.05
Q 877.5 102.05 880.7 100.45 883.85 98.85 883.85 94.8 883.85 91.65 881.65 89.7 879.4 87.65 875.15 87.65
L 867.8 87.65 867.8 74
Q 867.8 68.95 867.3 66.25 866.7 63.45 864.65 61.55 861.6 58.7 857.8 58.7 855.05 58.7 852.9 60.05 850.7 61.25 849.5 63.3 848.35 65.3 848.1 68.1 847.8 70.8 847.8 75.65
L 847.8 87.65
M 916.65 88.65
Q 909.25 91.5 904.2 96.95 899.15 102.35 896.55 110 893.9 117.5 893.9 126.4 893.9 145.2 904.6 156.2 915.3 167.2 934.55 167.2 942.95 167.2 949.5 165 955.95 162.8 960.25 159.5 964.5 156.1 966.6 152.55 968.75 148.85 968.75 146.15 968.75 143.1 966.85 141.4 964.95 139.7 961.85 139.7 959 139.7 957.45 141.05 953.75 144.55 951.4 146.6 949.05 148.65 946.25 150.5 943.5 152.25 940.55 153.1 937.55 153.9 933.95 153.9 928.6 153.9 924.2 151.3 919.75 148.65 917.1 143.45 914.4 138.25 914.35 131.45
L 953.45 131.45
Q 961.25 131.45 965.6 129.25 969.9 126.95 969.9 119.45 969.9 111.3 965.75 103.45 961.55 95.6 953.2 90.7 944.8 85.75 933.1 85.75 924.05 85.75 916.65 88.65
M 945.1 104.8
Q 949.85 109.85 950.6 120.1
L 914.35 120.1
Q 915.35 110 920.2 104.85 924.95 99.65 932.4 99.65 940.25 99.65 945.1 104.8
M 950.6 120.1
Q 949.85 109.85 945.1 104.8 940.25 99.65 932.4 99.65 924.95 99.65 920.2 104.85 915.35 110 914.35 120.1
L 950.6 120.1
M 1003.55 89.05
Q 1001.35 85.9 996.35 85.9 986.65 85.9 986.65 99.35
L 986.65 155
Q 986.65 161.05 989.4 164.1 992.2 167.2 996.5 167.2 1000.9 167.2 1003.75 164.2 1006.65 161.1 1006.65 155
L 1006.65 138.3
Q 1006.65 129.3 1007.2 123.1 1007.8 116.8 1009.35 112.25 1010.85 107.7 1013.65 105.45 1016.45 103.1 1020.85 103.1 1024.05 103.1 1028.3 104.5 1032.5 105.8 1033.6 105.8 1036.5 105.8 1039.05 103.45 1041.55 101.05 1041.55 97.4 1041.55 92.2 1035.65 89.05 1029.7 85.9 1023.4 85.9 1017.1 85.9 1013.35 89.05 1009.55 92.2 1005.95 98.35 1005.75 92.2 1003.55 89.05 Z"/>
</g>

<g id="Layer2_0_FILL">
<path fill="#FFFFFF" stroke="none" d="
M 149.5 88.35
Q 148.17578125 89.4966796875 146.65 90.6 142.5884765625 93.5330078125 137.1 96.15 116.3 106.1 86.85 106.1 57.4 106.1 36.6 96.15 28.6 92.35 23.7 87.9
L 23.55 88.1 34.85 185.1
Q 36.35 186.8 40.5 190.55 44.6 194.25 55.35 199.45 66.1 204.65 85.8 204.85 105.5 205 116.15 201.3 126.8 197.55 131.55 193.75 136.3 189.9 139.9 184.55
L 149.5 88.35
M 46.7 115.1
L 53.95 180.25 46.7 115.1
M 89.3 121.75
L 89.3 186.9 89.3 121.75
M 130.4 112.25
L 124.75 178.5 130.4 112.25
M 153.5 66.2
Q 150.863671875 69.550390625 146.65 72.6 142.602734375 75.513671875 137.1 78.15 116.3 88.1 86.85 88.1 57.4 88.1 36.6 78.15 16.25 68.4 15.8 54.7
L 15.8 72.7
Q 15.8 72.85 15.8 72.95 16.2 81.15 23.7 87.9 28.6 92.35 36.6 96.15 57.4 106.1 86.85 106.1 116.3 106.1 137.1 96.15 142.5884765625 93.5330078125 146.65 90.6 148.17578125 89.4966796875 149.5 88.35 149.55 88.3 149.65 88.25 151.87421875 86.294921875 153.5 84.2 157.61328125 78.969921875 157.9 72.95 157.9 72.85 157.9 72.7
L 157.9 54.7
Q 157.6984375 60.8392578125 153.5 66.2
M 153.5 42
Q 150.864453125 38.6458984375 146.65 35.6 142.603125 32.682421875 137.1 30.05 131.5 27.4 115.4 25.35 118.3 31.65 118.6 39.6 118.3 31.65 115.4 25.35 114.55 23.55 113.5 21.9 108.4 13.85 101.2 13.85
L 71.4 13.85
Q 64.2 13.85 59.1 21.9 58.3 23.15 57.65 24.45 54.35 31.05 54.05 39.6 54.35 31.05 57.65 24.45 41.15 27.85 36.6 30.05 16.15 39.85 15.8 53.65
L 15.8 54.7
Q 16.25 68.4 36.6 78.15 57.4 88.1 86.85 88.1 116.3 88.1 137.1 78.15 142.602734375 75.513671875 146.65 72.6 150.863671875 69.550390625 153.5 66.2 157.6984375 60.8392578125 157.9 54.7 157.9 54.4 157.9 54.1 157.9 47.6150390625 153.5 42 Z"/>
</g>

<g id="Layer1_0_FILL">
<path fill="#000000" stroke="none" d="
M 267.7 60.3
Q 265.15 58 259.95 58
L 208.65 58
Q 204.05 58 201.1 59.35 198.1 60.7 196.7 63.7 195.35 66.6 195.35 71.3
L 195.35 153.9
Q 195.35 160.6 198.4 163.9 201.4 167.2 206.25 167.2 211 167.2 214.1 163.95 217.1 160.65 217.1 153.9
L 217.1 118.55 252.9 118.55
Q 257.8 118.55 260.3 116.35 262.8 114.15 262.8 110.4 262.8 106.7 260.35 104.5 257.9 102.2 252.9 102.2
L 217.1 102.2 217.1 74.75 259.95 74.75
Q 265.15 74.75 267.7 72.5 270.2 70.15 270.2 66.35 270.2 62.6 267.7 60.3
M 343.35 97.15
Q 338.1 91.75 330.7 88.8 323.3 85.9 314.2 85.9 305.3 85.9 297.9 88.8 290.5 91.65 285.3 97 280.1 102.35 277.3 109.9 274.5 117.45 274.5 126.55 274.5 135.55 277.3 143 280 150.4 285.35 155.9 290.65 161.3 297.9 164.25 305.15 167.2 314.2 167.2 323.35 167.2 330.7 164.3 338 161.4 343.3 156 348.55 150.55 351.35 143 354.15 135.45 354.15 126.55 354.15 117.5 351.4 110.05 348.65 102.6 343.35 97.15
M 328.7 107.5
Q 334.05 114.3 334.05 126.55 334.05 138.6 328.7 145.5 323.3 152.3 314.2 152.3 308.2 152.3 303.8 149.25 299.35 146.1 297 140.25 294.6 134.35 294.6 126.55 294.6 118.6 297 112.7 299.4 106.75 303.9 103.75 308.35 100.7 314.2 100.7 323.3 100.7 328.7 107.5
M 433.9 97.15
Q 428.65 91.75 421.25 88.8 413.85 85.9 404.75 85.9 395.85 85.9 388.45 88.8 381.05 91.65 375.85 97 370.65 102.35 367.85 109.9 365.05 117.45 365.05 126.55 365.05 135.55 367.85 143 370.55 150.4 375.9 155.9 381.2 161.3 388.45 164.25 395.7 167.2 404.75 167.2 413.9 167.2 421.25 164.3 428.55 161.4 433.85 156 439.1 150.55 441.9 143 444.7 135.45 444.7 126.55 444.7 117.5 441.95 110.05 439.2 102.6 433.9 97.15
M 394.45 103.75
Q 398.9 100.7 404.75 100.7 413.85 100.7 419.25 107.5 424.6 114.3 424.6 126.55 424.6 138.6 419.25 145.5 413.85 152.3 404.75 152.3 398.75 152.3 394.35 149.25 389.9 146.1 387.55 140.25 385.15 134.35 385.15 126.55 385.15 118.6 387.55 112.7 389.95 106.75 394.45 103.75
M 503.6 89.05
Q 497.65 86.05 489 86.05 474.05 86.05 464.9 96.5 455.75 107 455.75 125.75 455.75 134.6 458.1 142.2 460.4 149.8 464.85 155.45 469.3 161.1 475.45 164.2 481.55 167.2 488.7 167.2 494.15 167.2 498.75 165.7 503.3 164.2 507.25 161.3 511.15 158.4 515.15 153.8
L 515.15 155.75
Q 515.15 161.25 517.85 164.25 520.5 167.2 524.6 167.2 528.8 167.2 531.4 164.3 534.05 161.45 534.05 155.75
L 534.05 67.55
Q 534.05 61.95 531.65 59.1 529.15 56.15 524.6 56.15 520.05 56.15 517.65 59.3 515.15 62.45 515.15 68.6
L 515.15 98.1
Q 509.5 91.95 503.6 89.05
M 514.05 126.4
Q 514.05 134.9 511.5 140.6 508.85 146.25 504.55 149 500.15 151.75 494.85 151.75 489.65 151.75 485.3 148.85 480.9 145.95 478.4 140.25 475.85 134.5 475.85 126.4 475.85 118.7 478.25 112.9 480.6 107.05 484.9 103.95 489.25 100.8 494.75 100.8 500 100.8 504.45 103.9 508.85 106.9 511.5 112.7 514.05 118.4 514.05 126.4
M 659.65 88.35
Q 657.05 85.9 653.45 85.9 649.85 85.9 647.95 87.55 646.05 89.2 645.25 91.4 644.45 93.5 643.1 98.35
L 629.95 143 618.05 101.5
Q 616.25 95.25 615.2 92.75 614.2 90.2 611.7 88.1 609.15 85.9 604.65 85.9 600.25 85.9 597.8 88.1 595.2 90.2 594.35 92.6 593.4 94.95 591.5 101.5
L 579.6 143 566.6 98.35
Q 564.6 91.5 562.85 88.75 561.1 85.9 556.1 85.9 552.35 85.9 549.8 88.45 547.25 91 547.25 94.25 547.25 96.8 549.65 103.55
L 565.85 151.45
Q 566.5 153.35 567.7 156.65 568.85 159.85 570.4 162.25 571.95 164.6 574.25 165.95 576.55 167.2 579.85 167.2 586.3 167.2 588.85 163.1 591.4 158.9 593.6 150.75
L 604.65 111.8 616.1 150.75
Q 617.55 156.05 618.8 159.35 620.05 162.65 622.7 164.9 625.25 167.2 629.8 167.2 634.2 167.2 636.75 165.05 639.25 162.95 640.4 160.2 641.6 157.5 643.7 151.45
L 660.05 103.55
Q 662.3 97.3 662.3 94.25 662.3 90.85 659.65 88.35
M 739.85 98.7
Q 736.7 91.95 729.15 88.9 721.6 85.75 708.45 85.75 696.65 85.75 688.75 88.95 680.8 92.2 677.1 97.15 673.35 102.15 673.35 107.4 673.35 110.8 675.85 113 678.25 115.1 681.6 115.1 685.35 115.1 686.55 113.8 687.65 112.4 690.4 108.15 693.1 103.9 697 101.8 700.8 99.65 708.45 99.65 717.3 99.65 720.15 103.4 722.95 107.05 723.3 114.95 717 116.8 711.65 118.1 706.25 119.35 698.7 120.9 691.15 122.45 689.25 122.85 680.15 124.85 674.95 130.65 669.75 136.4 669.75 144.6 669.75 150.7 672.9 155.9 676.05 161.1 681.9 164.2 687.7 167.2 695.4 167.2 703.8 167.2 710.65 164.4 717.35 161.55 724.6 155.9 728 161.4 731 164.3 734 167.2 737.05 167.2 740.75 167.2 743.65 164.7 746.5 162.15 746.5 159.05 746.5 157.3 744.7 151.2 742.8 145.05 742.8 139.4 742.85 133.4 742.9 128.5 742.9 123.6 742.9 116.55 742.9 105.45 739.85 98.7
M 689.8 143.15
Q 689.8 138.75 692.75 136.35 695.7 133.85 698.9 133.05 702.15 132.15 710.55 130.4 718.9 128.6 723.3 126.95
L 723.3 129.85
Q 723.3 140.25 720.6 144.75 718.25 148.85 713.25 151.5 708.2 154.05 702.3 154.05 696.7 154.05 693.25 150.9 689.8 147.7 689.8 143.15
M 847.8 87.65
L 845.65 87.65
Q 841.1 87.65 838.75 89.7 836.3 91.65 836.3 94.8 836.3 97.95 838.6 100 840.85 102.05 845.2 102.05
L 847.8 102.05 847.8 140.45
Q 847.8 149.75 849.35 155.3 850.85 160.9 855.65 164.05 860.5 167.2 869.85 167.2 879.75 167.2 885.05 164.6 890.3 162.05 890.3 157.2 890.3 154.35 888.4 152.45 886.4 150.5 884 150.5 882.3 150.5 879.3 151.15 876.3 151.75 874.55 151.75 871.35 151.75 869.95 150.2 868.5 148.6 868.2 146.1 867.8 143.5 867.8 138.85
L 867.8 102.05 871.55 102.05
Q 877.5 102.05 880.7 100.45 883.85 98.85 883.85 94.8 883.85 91.65 881.65 89.7 879.4 87.65 875.15 87.65
L 867.8 87.65 867.8 74
Q 867.8 68.95 867.3 66.25 866.7 63.45 864.65 61.55 861.6 58.7 857.8 58.7 855.05 58.7 852.9 60.05 850.7 61.25 849.5 63.3 848.35 65.3 848.1 68.1 847.8 70.8 847.8 75.65
L 847.8 87.65
M 821.6 97.8
Q 819.4 94.5 815.3 91.8 811.15 89.1 805 87.5 798.75 85.9 791 85.9 781.1 85.9 774.15 89.1 767.1 92.25 763.5 97.6 759.95 102.95 759.95 108.95 759.95 115.7 763.8 120.3 767.7 124.9 774.2 127.8 780.65 130.55 791 133.1 800.15 135.3 804.15 137.75 808.1 140.15 808.1 145.45 808.1 148.85 804.3 151.6 800.45 154.2 794.45 154.2 787.05 154.2 782.8 151.6 778.45 148.95 775.4 143.6 773.85 140.8 772.15 139.3 770.5 137.75 767.35 137.75 763.75 137.75 761.4 140.1 759.05 142.45 759.05 145.7 759.05 150.7 762.7 155.7 766.4 160.6 774.05 163.9 781.75 167.2 792.5 167.2 803.8 167.2 811.7 164.2 819.55 161.1 823.6 155.25 827.6 149.3 827.6 141.05 827.6 135.55 824.6 131.3 821.55 126.95 815.65 123.8 809.75 120.65 800.45 118.4 792.6 116.5 788.15 115.2 783.65 113.85 781.05 111.9 778.4 109.85 778.4 106.7 778.4 103.25 782 100.95 785.55 98.65 791 98.65 796.25 98.65 799.35 100.4 802.4 102.15 804.7 105.05 807.45 108.6 809.65 110.35 811.8 112.1 814.85 112.1 819.1 112.1 821.45 109.9 823.75 107.7 823.75 104.25 823.75 101.1 821.6 97.8
M 916.65 88.65
Q 909.25 91.5 904.2 96.95 899.15 102.35 896.55 110 893.9 117.5 893.9 126.4 893.9 145.2 904.6 156.2 915.3 167.2 934.55 167.2 942.95 167.2 949.5 165 955.95 162.8 960.25 159.5 964.5 156.1 966.6 152.55 968.75 148.85 968.75 146.15 968.75 143.1 966.85 141.4 964.95 139.7 961.85 139.7 959 139.7 957.45 141.05 953.75 144.55 951.4 146.6 949.05 148.65 946.25 150.5 943.5 152.25 940.55 153.1 937.55 153.9 933.95 153.9 928.6 153.9 924.2 151.3 919.75 148.65 917.1 143.45 914.4 138.25 914.35 131.45
L 953.45 131.45
Q 961.25 131.45 965.6 129.25 969.9 126.95 969.9 119.45 969.9 111.3 965.75 103.45 961.55 95.6 953.2 90.7 944.8 85.75 933.1 85.75 924.05 85.75 916.65 88.65
M 945.1 104.8
Q 949.85 109.85 950.6 120.1
L 914.35 120.1
Q 915.35 110 920.2 104.85 924.95 99.65 932.4 99.65 940.25 99.65 945.1 104.8
M 1003.55 89.05
Q 1001.35 85.9 996.35 85.9 986.65 85.9 986.65 99.35
L 986.65 155
Q 986.65 161.05 989.4 164.1 992.2 167.2 996.5 167.2 1000.9 167.2 1003.75 164.2 1006.65 161.1 1006.65 155
L 1006.65 138.3
Q 1006.65 129.3 1007.2 123.1 1007.8 116.8 1009.35 112.25 1010.85 107.7 1013.65 105.45 1016.45 103.1 1020.85 103.1 1024.05 103.1 1028.3 104.5 1032.5 105.8 1033.6 105.8 1036.5 105.8 1039.05 103.45 1041.55 101.05 1041.55 97.4 1041.55 92.2 1035.65 89.05 1029.7 85.9 1023.4 85.9 1017.1 85.9 1013.35 89.05 1009.55 92.2 1005.95 98.35 1005.75 92.2 1003.55 89.05 Z"/>
</g>

<path id="Layer3_0_1_STROKES" stroke="#FFFFFF" stroke-width="25" stroke-linejoin="round" stroke-linecap="round" fill="none" d="
M 1006.65 138.3
L 1006.65 155
Q 1006.65 161.1 1003.75 164.2 1000.9 167.2 996.5 167.2 992.2 167.2 989.4 164.1 986.65 161.05 986.65 155
L 986.65 99.35
Q 986.65 85.9 996.35 85.9 1001.35 85.9 1003.55 89.05 1005.75 92.2 1005.95 98.35 1009.55 92.2 1013.35 89.05 1017.1 85.9 1023.4 85.9 1029.7 85.9 1035.65 89.05 1041.55 92.2 1041.55 97.4 1041.55 101.05 1039.05 103.45 1036.5 105.8 1033.6 105.8 1032.5 105.8 1028.3 104.5 1024.05 103.1 1020.85 103.1 1016.45 103.1 1013.65 105.45 1010.85 107.7 1009.35 112.25 1007.8 116.8 1007.2 123.1 1006.65 129.3 1006.65 138.3 Z
M 977.85 134
L 977.85 141
M 953.45 131.45
L 914.35 131.45
Q 914.4 138.25 917.1 143.45 919.75 148.65 924.2 151.3 928.6 153.9 933.95 153.9 937.55 153.9 940.55 153.1 943.5 152.25 946.25 150.5 949.05 148.65 951.4 146.6 953.75 144.55 957.45 141.05 959 139.7 961.85 139.7 964.95 139.7 966.85 141.4 968.75 143.1 968.75 146.15 968.75 148.85 966.6 152.55 964.5 156.1 960.25 159.5 955.95 162.8 949.5 165 942.95 167.2 934.55 167.2 915.3 167.2 904.6 156.2 893.9 145.2 893.9 126.4 893.9 117.5 896.55 110 899.15 102.35 904.2 96.95 909.25 91.5 916.65 88.65 924.05 85.75 933.1 85.75 944.8 85.75 953.2 90.7 961.55 95.6 965.75 103.45 969.9 111.3 969.9 119.45 969.9 126.95 965.6 129.25 961.25 131.45 953.45 131.45 Z
M 845.65 87.65
L 847.8 87.65 847.8 75.65
Q 847.8 70.8 848.1 68.1 848.35 65.3 849.5 63.3 850.7 61.25 852.9 60.05 855.05 58.7 857.8 58.7 861.6 58.7 864.65 61.55 866.7 63.45 867.3 66.25 867.8 68.95 867.8 74
L 867.8 87.65 875.15 87.65
Q 879.4 87.65 881.65 89.7 883.85 91.65 883.85 94.8 883.85 98.85 880.7 100.45 877.5 102.05 871.55 102.05
L 867.8 102.05 867.8 138.85
Q 867.8 143.5 868.2 146.1 868.5 148.6 869.95 150.2 871.35 151.75 874.55 151.75 876.3 151.75 879.3 151.15 882.3 150.5 884 150.5 886.4 150.5 888.4 152.45 890.3 154.35 890.3 157.2 890.3 162.05 885.05 164.6 879.75 167.2 869.85 167.2 860.5 167.2 855.65 164.05 850.85 160.9 849.35 155.3 847.8 149.75 847.8 140.45
L 847.8 102.05 845.2 102.05
Q 840.85 102.05 838.6 100 836.3 97.95 836.3 94.8 836.3 91.65 838.75 89.7 841.1 87.65 845.65 87.65 Z
M 827.6 141.05
Q 827.6 149.3 823.6 155.25 819.55 161.1 811.7 164.2 803.8 167.2 792.5 167.2 781.75 167.2 774.05 163.9 766.4 160.6 762.7 155.7 759.05 150.7 759.05 145.7 759.05 142.45 761.4 140.1 763.75 137.75 767.35 137.75 770.5 137.75 772.15 139.3 773.85 140.8 775.4 143.6 777.06953125 146.5283203125 779.125 148.65 779.2994140625 148.8275390625 779.475 149 781.0310546875 150.522265625 782.8 151.6 787.05 154.2 794.45 154.2 800.45 154.2 804.3 151.6 808.1 148.85 808.1 145.45 808.1 140.15 804.15 137.75 802.0111328125 136.4400390625 798.4 135.2 795.257421875 134.1236328125 791 133.1 779.8201171875 129.9177734375 779.525 129.825 776.594140625 128.820703125 774.2 127.8 767.7 124.9 763.8 120.3 759.95 115.7 759.95 108.95 759.95 102.95 763.5 97.6 767.1 92.25 774.15 89.1 781.1 85.9 791 85.9 798.75 85.9 805 87.5 811.15 89.1 815.3 91.8 819.4 94.5 821.6 97.8 823.75 101.1 823.75 104.25 823.75 107.7 821.45 109.9 819.1 112.1 814.85 112.1 811.8 112.1 809.65 110.35 807.45 108.6 804.7 105.05 802.4 102.15 799.35 100.4 796.25 98.65 791 98.65 785.55 98.65 782 100.95 778.4 103.25 778.4 106.7 778.4 109.85 781.05 111.9 783.65 113.85 788.15 115.2 792.6 116.5 800.45 118.4 809.75 120.65 815.65 123.8 821.55 126.95 824.6 131.3 827.6 135.55 827.6 141.05 Z
M 882.75 111.05
L 882.75 136.1
M 833.45 110.75
L 837.1 133.2 837.1 144.45
M 914.35 120.1
L 950.6 120.1
Q 949.85 109.85 945.1 104.8 940.25 99.65 932.4 99.65 924.95 99.65 920.2 104.85 915.35 110 914.35 120.1 Z
M 929.75 143.1
L 936 143.1
M 674.125 110.8
Q 673.35 109.2830078125 673.35 107.4 673.35 102.15 677.1 97.15 680.8 92.2 688.75 88.95 696.65 85.75 708.45 85.75 721.6 85.75 729.15 88.9 736.7 91.95 739.85 98.7 742.9 105.45 742.9 116.55 742.9 123.6 742.9 128.5 742.85 133.4 742.8 139.4 742.8 145.05 744.7 151.2 746.5 157.3 746.5 159.05 746.5 162.15 743.65 164.7 740.75 167.2 737.05 167.2 734 167.2 731 164.3 728 161.4 724.6 155.9 717.35 161.55 710.65 164.4 703.8 167.2 695.4 167.2 687.7 167.2 681.9 164.2 676.05 161.1 672.9 155.9 669.75 150.7 669.75 144.6 669.75 136.4 674.95 130.65 680.15 124.85 689.25 122.85 691.15 122.45 698.7 120.9 706.25 119.35 711.65 118.1 717 116.8 723.3 114.95 722.95 107.05 720.15 103.4 717.3 99.65 708.45 99.65 700.8 99.65 697 101.8 693.1 103.9 690.4 108.15 687.65 112.4 686.55 113.8 685.35 115.1 681.6 115.1 678.25 115.1 675.85 113 674.7345703125 112.018359375 674.125 110.8
L 660.45 130.5 660.45 139.2
M 566.6 98.35
L 579.6 143 591.5 101.5
Q 593.4 94.95 594.35 92.6 595.2 90.2 597.8 88.1 600.25 85.9 604.65 85.9 609.15 85.9 611.7 88.1 614.2 90.2 615.2 92.75 616.25 95.25 618.05 101.5
L 629.95 143 643.1 98.35
Q 644.45 93.5 645.25 91.4 646.05 89.2 647.95 87.55 649.85 85.9 653.45 85.9 657.05 85.9 659.65 88.35 662.3 90.85 662.3 94.25 662.3 97.3 660.05 103.55
L 643.7 151.45
Q 641.6 157.5 640.4 160.2 639.25 162.95 636.75 165.05 634.2 167.2 629.8 167.2 625.25 167.2 622.7 164.9 620.05 162.65 618.8 159.35 617.55 156.05 616.1 150.75
L 604.65 111.8 593.6 150.75
Q 591.4 158.9 588.85 163.1 586.3 167.2 579.85 167.2 576.55 167.2 574.25 165.95 571.95 164.6 570.4 162.25 568.85 159.85 567.7 156.65 566.5 153.35 565.85 151.45
L 549.65 103.55
Q 547.25 96.8 547.25 94.25 547.25 91 549.8 88.45 552.35 85.9 556.1 85.9 561.1 85.9 562.85 88.75 564.6 91.5 566.6 98.35 Z
M 723.3 126.95
Q 718.9 128.6 710.55 130.4 702.15 132.15 698.9 133.05 695.7 133.85 692.75 136.35 689.8 138.75 689.8 143.15 689.8 147.7 693.25 150.9 696.7 154.05 702.3 154.05 708.2 154.05 713.25 151.5 718.25 148.85 720.6 144.75 723.3 140.25 723.3 129.85
L 723.3 126.95 Z
M 783.15 145.1
L 789.35 141.7
M 752.6 135.8
L 754.55 124.5
M 515.15 155.75
L 515.15 153.8
Q 511.15 158.4 507.25 161.3 503.3 164.2 498.75 165.7 494.15 167.2 488.7 167.2 481.55 167.2 475.45 164.2 473.1 163 471 161.45 467.6 158.95 464.85 155.45 460.4 149.8 458.1 142.2 455.75 134.6 455.75 125.75 455.75 107 464.9 96.5 467.7 93.3 471 91.1 478.6 86.05 489 86.05 497.65 86.05 503.6 89.05 509.5 91.95 515.15 98.1
L 515.15 68.6
Q 515.15 62.45 517.65 59.3 520.05 56.15 524.6 56.15 529.15 56.15 531.65 59.1 534.05 61.95 534.05 67.55
L 534.05 155.75
Q 534.05 161.45 531.4 164.3 528.8 167.2 524.6 167.2 520.5 167.2 517.85 164.25 515.15 161.25 515.15 155.75 Z
M 475.85 126.4
Q 475.85 134.5 478.4 140.25 480.9 145.95 485.3 148.85 489.65 151.75 494.85 151.75 500.15 151.75 504.55 149 508.85 146.25 511.5 140.6 514.05 134.9 514.05 126.4 514.05 118.4 511.5 112.7 508.85 106.9 504.45 103.9 500 100.8 494.75 100.8 489.25 100.8 484.9 103.95 480.6 107.05 478.25 112.9 475.85 118.7 475.85 126.4 Z
M 444.7 126.55
Q 444.7 135.45 441.9 143 439.7037109375 148.921875 436 153.55 434.98203125 154.8248046875 433.85 156 428.55 161.4 421.25 164.3 413.9 167.2 404.75 167.2 395.7 167.2 388.45 164.25 381.2 161.3 375.9 155.9 370.55 150.4 367.85 143 365.05 135.55 365.05 126.55 365.05 117.45 367.85 109.9 370.65 102.35 375.85 97 381.05 91.65 388.45 88.8 395.85 85.9 404.75 85.9 413.85 85.9 421.25 88.8 428.65 91.75 433.9 97.15 435.0056640625 98.2869140625 436 99.5 439.7736328125 104.154296875 441.95 110.05 444.7 117.5 444.7 126.55 Z
M 354.15 126.55
Q 354.15 135.45 351.35 143 348.55 150.55 343.3 156 338 161.4 330.7 164.3 323.35 167.2 314.2 167.2 305.15 167.2 297.9 164.25 290.65 161.3 285.35 155.9 280 150.4 277.3 143 274.5 135.55 274.5 126.55 274.5 117.45 277.3 109.9 280.1 102.35 285.3 97 290.5 91.65 297.9 88.8 305.3 85.9 314.2 85.9 323.3 85.9 330.7 88.8 338.1 91.75 343.35 97.15 348.65 102.6 351.4 110.05 354.15 117.5 354.15 126.55 Z
M 424.6 126.55
Q 424.6 114.3 419.25 107.5 413.85 100.7 404.75 100.7 398.9 100.7 394.45 103.75 389.95 106.75 387.55 112.7 385.15 118.6 385.15 126.55 385.15 134.35 387.55 140.25 389.9 146.1 394.35 149.25 398.75 152.3 404.75 152.3 413.85 152.3 419.25 145.5 424.6 138.6 424.6 126.55 Z
M 334.05 126.55
Q 334.05 114.3 328.7 107.5 323.3 100.7 314.2 100.7 308.35 100.7 303.9 103.75 299.4 106.75 297 112.7 294.6 118.6 294.6 126.55 294.6 134.35 297 140.25 299.35 146.1 303.8 149.25 308.2 152.3 314.2 152.3 323.3 152.3 328.7 145.5 334.05 138.6 334.05 126.55 Z
M 268.7 71.375
Q 268.258984375 71.9744140625 267.7 72.5 265.15 74.75 259.95 74.75
L 217.1 74.75 217.1 102.2 252.9 102.2
Q 257.9 102.2 260.35 104.5 262.8 106.7 262.8 110.4 262.8 114.15 260.3 116.35 257.8 118.55 252.9 118.55
L 217.1 118.55 217.1 153.9
Q 217.1 160.65 214.1 163.95 211 167.2 206.25 167.2 201.4 167.2 198.4 163.9 195.35 160.6 195.35 153.9
L 195.35 71.3
Q 195.35 66.6 196.7 63.7 198.1 60.7 201.1 59.35 204.05 58 208.65 58
L 259.95 58
Q 265.15 58 267.7 60.3 270.2 62.6 270.2 66.35 270.2 69.3001953125 268.7 71.375
L 262.2 95.2
M 226.75 88.2
L 260.1 88.2"/>

<path id="Layer2_0_1_STROKES" stroke="#FFFFFF" stroke-width="23" stroke-linejoin="round" stroke-linecap="round" fill="none" d="
M 23.7 87.9
Q 16.2 81.15 15.8 72.95 15.8 72.85 15.8 72.7
L 15.8 54.7 15.8 53.65
Q 16.15 39.85 36.6 30.05 41.15 27.85 57.65 24.45 58.3 23.15 59.1 21.9 64.2 13.85 71.4 13.85
L 101.2 13.85
Q 108.4 13.85 113.5 21.9 114.55 23.55 115.4 25.35 131.5 27.4 137.1 30.05 142.603125 32.682421875 146.65 35.6 150.864453125 38.6458984375 153.5 42 157.9 47.6150390625 157.9 54.1 157.9 54.4 157.9 54.7
L 157.9 72.7
Q 157.9 72.85 157.9 72.95 157.61328125 78.969921875 153.5 84.225 151.87421875 86.294921875 149.65 88.25 149.55 88.3 149.5 88.35
L 139.9 184.55
Q 136.3 189.9 131.55 193.75 126.8 197.55 116.15 201.3 105.5 205 85.8 204.85 66.1 204.65 55.35 199.45 44.6 194.25 40.5 190.55 36.35 186.8 34.85 185.1
L 23.55 88.1
M 23.7 87.9
Q 28.6 92.35 36.6 96.15 57.4 106.1 86.85 106.1 116.3 106.1 137.1 96.15 142.5884765625 93.5330078125 146.65 90.6 148.17578125 89.4966796875 149.5 88.35
M 115.4 25.35
Q 118.3 31.65 118.6 39.6
M 157.9 54.7
Q 157.6984375 60.8392578125 153.5 66.2 150.863671875 69.550390625 146.65 72.6 142.602734375 75.513671875 137.1 78.15 116.3 88.1 86.85 88.1 57.4 88.1 36.6 78.15 16.25 68.4 15.8 54.7
M 54.05 39.6
Q 54.35 31.05 57.65 24.45
M 46.7 115.1
L 53.95 180.25
M 89.3 121.75
L 89.3 186.9
M 130.4 112.25
L 124.75 178.5"/>

<path id="Layer0_0_1_STROKES" stroke="#000000" stroke-width="7" stroke-linejoin="bevel" stroke-linecap="round" fill="none" d="
M 141.3 170.35
L 139.9 184.55
Q 136.3 189.9 131.55 193.75 126.8 197.55 116.15 201.3
M 55.35 199.45
Q 44.6 194.25 40.5 190.55 36.35 186.8 34.85 185.1
L 34.3 180.45
M 54.05 39.6
Q 54.4 29.35 59.1 21.9 64.2 13.85 71.4 13.85
L 101.2 13.85
Q 108.4 13.85 113.5 21.9 118.2 29.35 118.6 39.6"/>

<path id="Layer0_0_2_STROKES" stroke="#000000" stroke-width="7" stroke-linejoin="round" stroke-linecap="round" fill="none" d="
M 129.8 28.3
Q 131.5 27.4 137.1 30.05 142.603125 32.682421875 146.65 35.6 157.9 43.73046875 157.9 54.1 157.9 54.4 157.9 54.7
L 157.9 72.7
Q 157.9 72.85 157.9 72.95 157.9 73.05 157.9 73.15 157.4 81.4 149.65 88.25 149.55 88.3 149.5 88.35
L 141.3 170.35
M 116.15 201.3
Q 105.5 205 85.8 204.85 66.1 204.65 55.35 199.45
M 34.3 180.45
L 23.55 88.1
M 157.9 54.7
Q 157.85 55.8 157.7 56.9 156.3513671875 65.618359375 146.65 72.625 146.28125 72.8861328125 145.9 73.15 142.1 75.75 137.1 78.15 131.1 81.05 124.35 83.1 107.8 88.1 86.85 88.1 57.4 88.1 36.6 78.15 31.6 75.75 27.85 73.15 16.15 65.05 15.8 54.7
L 15.8 72.7
Q 15.8 72.85 15.8 72.95 15.8 73.05 15.8 73.15 16.6 86.55 36.6 96.15 57.4 106.1 86.85 106.1 107.8 106.1 124.35 101.1 131.1 99.05 137.1 96.15 142.5884765625 93.5330078125 146.65 90.6 148.17578125 89.4966796875 149.5 88.35
M 15.8 54.7
L 15.8 53.65
Q 16.15 39.85 36.6 30.05 41.15 27.85 43.85 27.8"/>
</defs>

<g transform="matrix( 1, 0, 0, 1, 0,0) ">
<use xlink:href="#Layer3_0_FILL"/>

<use xlink:href="#Layer3_0_1_STROKES"/>
</g>

<g transform="matrix( 1, 0, 0, 1, 0,0) ">
<use xlink:href="#Layer2_0_FILL"/>

<use xlink:href="#Layer2_0_1_STROKES"/>
</g>

<g transform="matrix( 1, 0, 0, 1, 0,0) ">
<use xlink:href="#Layer1_0_FILL"/>
</g>

<g transform="matrix( 1, 0, 0, 1, 0,0) ">
<use xlink:href="#Layer0_0_1_STROKES"/>

<use xlink:href="#Layer0_0_2_STROKES"/>
</g>
</svg>
